<?xml version="1.0" standalone="no"?>
<!DOCTYPE svg PUBLIC "-//W3C//DTD SVG 20010904//EN"
 "http://www.w3.org/TR/2001/REC-SVG-20010904/DTD/svg10.dtd">
<svg version="1.0" xmlns="http://www.w3.org/2000/svg"
 width="1280.000000pt" height="1280.000000pt" viewBox="0 0 1280.000000 1280.000000"
 preserveAspectRatio="xMidYMid meet">
<g transform="translate(0.000000,1280.000000) scale(0.100000,-0.100000)"
fill="#000000" stroke="none">
<path d="M2760 12789 c-188 -38 -283 -74 -387 -148 -83 -58 -2118 -2110 -2172
-2189 -170 -252 -184 -604 -35 -918 92 -195 53 -153 1575 -1683 780 -783 1415
-1429 1413 -1436 -3 -7 -564 -566 -1247 -1243 -1517 -1502 -1650 -1637 -1709
-1727 -94 -145 -135 -247 -172 -426 -31 -148 -32 -176 -7 -299 43 -210 88
-296 236 -449 208 -215 2025 -1994 2083 -2038 314 -245 823 -207 1172 86 36
30 694 681 1463 1446 769 764 1401 1391 1406 1393 4 1 643 -639 1420 -1422
776 -784 1433 -1442 1459 -1464 160 -132 315 -205 526 -247 153 -30 173 -30
296 -6 171 35 282 84 380 169 30 26 419 416 865 867 1399 1417 1274 1284 1340
1428 131 286 82 649 -129 957 -55 81 -297 328 -1934 1978 -676 682 -961 975
-955 984 4 7 550 551 1213 1208 1769 1753 1665 1647 1747 1772 87 132 134 247
167 409 30 144 31 167 11 274 -34 176 -85 294 -178 403 -80 95 -2085 2082
-2144 2125 -65 48 -177 99 -268 123 -103 28 -350 25 -457 -4 -153 -42 -307
-117 -424 -207 -32 -25 -694 -678 -1471 -1450 -776 -773 -1417 -1405 -1425
-1405 -7 0 -366 357 -797 793 -1488 1503 -2074 2087 -2137 2132 -148 106 -288
165 -474 201 -131 25 -177 28 -250 13z"/>
</g>
</svg>
